<?xml version="1.0" encoding="UTF-8" standalone="no"?>
<!-- Created with Inkscape (http://www.inkscape.org/) -->

<svg
   version="1.1"
   id="svg2305"
   xml:space="preserve"
   width="777.33331"
   height="594.66669"
   viewBox="0 0 777.33331 594.66669"
   sodipodi:docname="hsf.svg"
   inkscape:version="1.1.1 (3bf5ae0d25, 2021-09-20)"
   xmlns:inkscape="http://www.inkscape.org/namespaces/inkscape"
   xmlns:sodipodi="http://sodipodi.sourceforge.net/DTD/sodipodi-0.dtd"
   xmlns="http://www.w3.org/2000/svg"
   xmlns:svg="http://www.w3.org/2000/svg"><defs
     id="defs2309"><clipPath
       clipPathUnits="userSpaceOnUse"
       id="clipPath2321"><path
         d="M 0,0 H 583 V 446 H 0 Z"
         id="path2319" /></clipPath></defs><sodipodi:namedview
     id="namedview2307"
     pagecolor="#ffffff"
     bordercolor="#666666"
     borderopacity="1.0"
     inkscape:pageshadow="2"
     inkscape:pageopacity="0.0"
     inkscape:pagecheckerboard="0"
     showgrid="false"
     inkscape:zoom="0.84572619"
     inkscape:cx="230.57108"
     inkscape:cy="296.78636"
     inkscape:window-width="1920"
     inkscape:window-height="1051"
     inkscape:window-x="0"
     inkscape:window-y="0"
     inkscape:window-maximized="1"
     inkscape:current-layer="g2315" /><g
     id="g2311"
     inkscape:groupmode="layer"
     inkscape:label="hsf_logo_red"
     transform="matrix(1.3333333,0,0,-1.3333333,0,594.66667)"><g
       id="g2313" /><g
       id="g2315"><g
         id="g2557"><g
           id="g2323"
           transform="matrix(1,0,0,-1,-230,494)"><path
             d="m 528.6004,130.9463 c -26.7773,11.9014 -76.99,40.4247 -60.6555,81.6521 21.9544,55.4118 132.1829,52.3048 153.8011,107.7166 16.1087,41.29 -34.8176,69.8373 -61.8211,81.7062"
             style="fill:none;stroke:#c22b28;stroke-width:24;stroke-linecap:round;stroke-linejoin:round;stroke-miterlimit:10;stroke-dasharray:none;stroke-opacity:1"
             id="path2325" /></g><g
           id="g2327"
           transform="matrix(1,0,0,-1,-230,494)"><path
             d="M 527.4251,124.0929 242.1102,113.3858"
             style="fill:none;stroke:#000000;stroke-width:11;stroke-linecap:square;stroke-linejoin:round;stroke-miterlimit:10;stroke-dasharray:none;stroke-opacity:1"
             id="path2329" /></g><g
           id="g2331"
           transform="matrix(1,0,0,-1,-230,494)"><path
             d="M 527.4251,408.8204 242.1102,419.5276"
             style="fill:none;stroke:#000000;stroke-width:11;stroke-linecap:square;stroke-linejoin:round;stroke-miterlimit:10;stroke-dasharray:none;stroke-opacity:1"
             id="path2333" /></g><g
           id="g2335"
           transform="matrix(1,0,0,-1,-230,494)"><path
             d="m 561.0742,408.9331 239.5064,10.5945"
             style="fill:none;stroke:#000000;stroke-width:11;stroke-linecap:square;stroke-linejoin:round;stroke-miterlimit:10;stroke-dasharray:none;stroke-opacity:1"
             id="path2337" /></g><g
           id="g2339"
           transform="matrix(1,0,0,-1,-230,494)"><path
             d="M 561.0742,123.9803 800.5806,113.3858"
             style="fill:none;stroke:#000000;stroke-width:11;stroke-linecap:square;stroke-linejoin:round;stroke-miterlimit:10;stroke-dasharray:none;stroke-opacity:1"
             id="path2341" /></g><path
           d="m 322.2695,377.2932 c 4.4281,-4.428 4.4281,-11.6072 0,-16.0352 -4.4279,-4.428 -11.6071,-4.428 -16.0351,0 -4.428,4.428 -4.428,11.6072 0,16.0352 4.428,4.428 11.6072,4.428 16.0351,0"
           style="fill:#000000;fill-opacity:1;fill-rule:nonzero;stroke:none"
           id="path2343" /><g
           id="g2345"
           transform="matrix(1,0,0,-1,-230,494)"><path
             d="m 552.2695,116.7068 c 4.4281,4.428 4.4281,11.6072 0,16.0352 -4.4279,4.428 -11.6071,4.428 -16.0351,0 -4.428,-4.428 -4.428,-11.6072 0,-16.0352 4.428,-4.428 11.6072,-4.428 16.0351,0"
             style="fill:none;stroke:#000000;stroke-width:11;stroke-linecap:round;stroke-linejoin:round;stroke-miterlimit:10;stroke-dasharray:none;stroke-opacity:1"
             id="path2347" /></g><path
           d="m 322.2695,93.82861 c 4.4281,-4.42799 4.4281,-11.60718 0,-16.03516 -4.4279,-4.42802 -11.6071,-4.42802 -16.0351,0 -4.428,4.42798 -4.428,11.60717 0,16.03516 4.428,4.42801 11.6072,4.42801 16.0351,0"
           style="fill:#000000;fill-opacity:1;fill-rule:nonzero;stroke:none"
           id="path2349" /><g
           id="g2351"
           transform="matrix(1,0,0,-1,-230,494)"><path
             d="m 552.2695,400.1714 c 4.4281,4.428 4.4281,11.6072 0,16.0352 -4.4279,4.428 -11.6071,4.428 -16.0351,0 -4.428,-4.428 -4.428,-11.6072 0,-16.0352 4.428,-4.428 11.6072,-4.428 16.0351,0"
             style="fill:none;stroke:#000000;stroke-width:11;stroke-linecap:round;stroke-linejoin:round;stroke-miterlimit:10;stroke-dasharray:none;stroke-opacity:1"
             id="path2353" /></g><g
           id="g2355"
           transform="matrix(1,0,0,-1,121.6102,237.3031)"><text
             transform="translate(-104.32,114)"
             style="font-variant:normal;font-weight:normal;font-size:320px;font-family:SourceSansPro;-inkscape-font-specification:SourceSansPro-Regular;writing-mode:lr-tb;fill:#c22b28;fill-opacity:1;fill-rule:nonzero;stroke:none"
             id="text2359"><tspan
               x="0"
               y="0"
               id="tspan2357">H</tspan></text></g><g
           id="g2361"
           transform="matrix(1,0,0,-1,486.0806,238.8071)"><text
             transform="translate(-79.04,114)"
             style="font-variant:normal;font-weight:normal;font-size:320px;font-family:SourceSansPro;-inkscape-font-specification:SourceSansPro-Regular;writing-mode:lr-tb;fill:#c22b28;fill-opacity:1;fill-rule:nonzero;stroke:none"
             id="text2365"><tspan
               x="0"
               y="0"
               id="tspan2363">F</tspan></text></g></g></g></g></svg>
